<svg width="175" height="52" viewBox="0 0 175 52" fill="none" xmlns="http://www.w3.org/2000/svg">
<path d="M0 0H167C171.418 0 175 3.58172 175 8V44C175 48.4183 171.418 52 167 52H0V0Z" fill="#F8F8F8"/>
<path d="M38.1081 20L40 21.75L33.7838 27.5L40 33.25L38.1081 35L30 27.5L38.1081 20Z" fill="#5C5C5C"/>
<path d="M59.32 27.472C59.6507 27.7067 60.008 28.0053 60.392 28.368C60.776 28.72 61.1493 29.104 61.512 29.52C61.8853 29.936 62.232 30.3627 62.552 30.8C62.872 31.2267 63.144 31.6267 63.368 32H61.608C61.3733 31.6373 61.096 31.2693 60.776 30.896C60.4667 30.512 60.1413 30.144 59.8 29.792C59.4587 29.44 59.112 29.1147 58.76 28.816C58.408 28.5173 58.0773 28.2667 57.768 28.064V32H56.28V23.68H57.768V27.248C58.024 27.0027 58.3173 26.72 58.648 26.4C58.9787 26.0693 59.3093 25.7387 59.64 25.408C59.9813 25.0667 60.296 24.7467 60.584 24.448C60.872 24.1387 61.1067 23.8827 61.288 23.68H63.016C62.7813 23.936 62.504 24.2293 62.184 24.56C61.8747 24.88 61.5493 25.2107 61.208 25.552C60.8773 25.8933 60.5467 26.2347 60.216 26.576C59.8853 26.9067 59.5867 27.2053 59.32 27.472ZM67.6898 30.928C68.0418 30.928 68.3511 30.9227 68.6178 30.912C68.8951 30.8907 69.1244 30.8587 69.3058 30.816V28.336C69.1991 28.2827 69.0231 28.24 68.7778 28.208C68.5431 28.1653 68.2551 28.144 67.9138 28.144C67.6898 28.144 67.4498 28.16 67.1938 28.192C66.9484 28.224 66.7191 28.2933 66.5058 28.4C66.3031 28.496 66.1324 28.6347 65.9938 28.816C65.8551 28.9867 65.7858 29.216 65.7858 29.504C65.7858 30.0373 65.9564 30.4107 66.2978 30.624C66.6391 30.8267 67.1031 30.928 67.6898 30.928ZM67.5618 23.472C68.1591 23.472 68.6604 23.552 69.0658 23.712C69.4818 23.8613 69.8124 24.08 70.0578 24.368C70.3138 24.6453 70.4951 24.9813 70.6018 25.376C70.7084 25.76 70.7618 26.1867 70.7618 26.656V31.856C70.6338 31.8773 70.4524 31.9093 70.2178 31.952C69.9938 31.984 69.7378 32.016 69.4498 32.048C69.1618 32.08 68.8471 32.1067 68.5058 32.128C68.1751 32.16 67.8444 32.176 67.5138 32.176C67.0444 32.176 66.6124 32.128 66.2178 32.032C65.8231 31.936 65.4818 31.7867 65.1938 31.584C64.9058 31.3707 64.6818 31.0933 64.5218 30.752C64.3618 30.4107 64.2818 30 64.2818 29.52C64.2818 29.0613 64.3724 28.6667 64.5538 28.336C64.7458 28.0053 65.0018 27.7387 65.3218 27.536C65.6418 27.3333 66.0151 27.184 66.4418 27.088C66.8684 26.992 67.3164 26.944 67.7858 26.944C67.9351 26.944 68.0898 26.9547 68.2498 26.976C68.4098 26.9867 68.5591 27.008 68.6978 27.04C68.8471 27.0613 68.9751 27.0827 69.0818 27.104C69.1884 27.1253 69.2631 27.1413 69.3058 27.152V26.736C69.3058 26.4907 69.2791 26.2507 69.2258 26.016C69.1724 25.7707 69.0764 25.5573 68.9378 25.376C68.7991 25.184 68.6071 25.0347 68.3618 24.928C68.1271 24.8107 67.8178 24.752 67.4338 24.752C66.9431 24.752 66.5111 24.7893 66.1378 24.864C65.7751 24.928 65.5031 24.9973 65.3218 25.072L65.1458 23.84C65.3378 23.7547 65.6578 23.6747 66.1058 23.6C66.5538 23.5147 67.0391 23.472 67.5618 23.472ZM79.0091 27.856C79.0091 26.8853 78.7691 26.1387 78.2891 25.616C77.8091 25.0933 77.1691 24.832 76.3691 24.832C75.9211 24.832 75.5691 24.848 75.3131 24.88C75.0678 24.912 74.8705 24.9493 74.7211 24.992V30.24C74.9025 30.3893 75.1638 30.5333 75.5051 30.672C75.8465 30.8107 76.2198 30.88 76.6251 30.88C77.0518 30.88 77.4145 30.8053 77.7131 30.656C78.0225 30.496 78.2731 30.2827 78.4651 30.016C78.6571 29.7387 78.7958 29.4187 78.8811 29.056C78.9665 28.6827 79.0091 28.2827 79.0091 27.856ZM80.5611 27.856C80.5611 28.4853 80.4758 29.0667 80.3051 29.6C80.1451 30.1333 79.9051 30.592 79.5851 30.976C79.2651 31.36 78.8705 31.6587 78.4011 31.872C77.9425 32.0853 77.4145 32.192 76.8171 32.192C76.3371 32.192 75.9105 32.128 75.5371 32C75.1745 31.872 74.9025 31.7493 74.7211 31.632V34.96H73.2331V23.936C73.5851 23.8507 74.0225 23.76 74.5451 23.664C75.0785 23.5573 75.6918 23.504 76.3851 23.504C77.0251 23.504 77.6011 23.6053 78.1131 23.808C78.6251 24.0107 79.0625 24.2987 79.4251 24.672C79.7878 25.0453 80.0651 25.504 80.2571 26.048C80.4598 26.5813 80.5611 27.184 80.5611 27.856ZM88.527 23.68V24.928H85.823V32H84.335V24.928H81.631V23.68H88.527ZM92.8773 30.928C93.2293 30.928 93.5386 30.9227 93.8053 30.912C94.0826 30.8907 94.3119 30.8587 94.4933 30.816V28.336C94.3866 28.2827 94.2106 28.24 93.9653 28.208C93.7306 28.1653 93.4426 28.144 93.1013 28.144C92.8773 28.144 92.6373 28.16 92.3813 28.192C92.1359 28.224 91.9066 28.2933 91.6933 28.4C91.4906 28.496 91.3199 28.6347 91.1813 28.816C91.0426 28.9867 90.9733 29.216 90.9733 29.504C90.9733 30.0373 91.1439 30.4107 91.4853 30.624C91.8266 30.8267 92.2906 30.928 92.8773 30.928ZM92.7493 23.472C93.3466 23.472 93.8479 23.552 94.2533 23.712C94.6693 23.8613 94.9999 24.08 95.2453 24.368C95.5013 24.6453 95.6826 24.9813 95.7893 25.376C95.8959 25.76 95.9493 26.1867 95.9493 26.656V31.856C95.8213 31.8773 95.6399 31.9093 95.4053 31.952C95.1813 31.984 94.9253 32.016 94.6373 32.048C94.3493 32.08 94.0346 32.1067 93.6933 32.128C93.3626 32.16 93.0319 32.176 92.7013 32.176C92.2319 32.176 91.7999 32.128 91.4053 32.032C91.0106 31.936 90.6693 31.7867 90.3813 31.584C90.0933 31.3707 89.8693 31.0933 89.7093 30.752C89.5493 30.4107 89.4693 30 89.4693 29.52C89.4693 29.0613 89.5599 28.6667 89.7413 28.336C89.9333 28.0053 90.1893 27.7387 90.5093 27.536C90.8293 27.3333 91.2026 27.184 91.6293 27.088C92.0559 26.992 92.5039 26.944 92.9733 26.944C93.1226 26.944 93.2773 26.9547 93.4373 26.976C93.5973 26.9867 93.7466 27.008 93.8853 27.04C94.0346 27.0613 94.1626 27.0827 94.2693 27.104C94.3759 27.1253 94.4506 27.1413 94.4933 27.152V26.736C94.4933 26.4907 94.4666 26.2507 94.4133 26.016C94.3599 25.7707 94.2639 25.5573 94.1253 25.376C93.9866 25.184 93.7946 25.0347 93.5493 24.928C93.3146 24.8107 93.0053 24.752 92.6213 24.752C92.1306 24.752 91.6986 24.7893 91.3253 24.864C90.9626 24.928 90.6906 24.9973 90.5093 25.072L90.3333 23.84C90.5253 23.7547 90.8453 23.6747 91.2933 23.6C91.7413 23.5147 92.2266 23.472 92.7493 23.472ZM104.236 23.472C104.716 23.472 105.164 23.52 105.58 23.616C105.996 23.712 106.353 23.856 106.652 24.048C106.95 24.24 107.185 24.48 107.356 24.768C107.526 25.056 107.612 25.392 107.612 25.776C107.612 26.0213 107.569 26.2453 107.484 26.448C107.398 26.6507 107.292 26.832 107.164 26.992C107.036 27.152 106.892 27.2907 106.732 27.408C106.582 27.5147 106.438 27.5893 106.3 27.632C106.79 27.7813 107.174 28.048 107.452 28.432C107.74 28.8053 107.884 29.28 107.884 29.856C107.884 30.6453 107.564 31.232 106.924 31.616C106.284 32 105.414 32.192 104.316 32.192C103.644 32.192 103.062 32.1387 102.572 32.032C102.092 31.9253 101.75 31.824 101.548 31.728L101.804 30.464C101.974 30.528 102.278 30.6187 102.716 30.736C103.164 30.8427 103.697 30.896 104.316 30.896C104.988 30.896 105.5 30.7947 105.852 30.592C106.204 30.3787 106.38 30.064 106.38 29.648C106.38 29.3493 106.31 29.1093 106.172 28.928C106.044 28.736 105.878 28.592 105.676 28.496C105.473 28.4 105.254 28.336 105.02 28.304C104.785 28.272 104.566 28.256 104.364 28.256H102.972V27.072H104.316C104.508 27.072 104.705 27.0613 104.908 27.04C105.121 27.008 105.313 26.9493 105.484 26.864C105.665 26.7787 105.814 26.6613 105.932 26.512C106.049 26.352 106.108 26.144 106.108 25.888C106.108 25.6853 106.054 25.5147 105.948 25.376C105.852 25.2267 105.718 25.104 105.548 25.008C105.377 24.912 105.174 24.8427 104.94 24.8C104.716 24.7467 104.481 24.72 104.236 24.72C104.044 24.72 103.836 24.736 103.612 24.768C103.388 24.8 103.169 24.8427 102.956 24.896C102.742 24.9387 102.55 24.9867 102.38 25.04C102.209 25.0933 102.086 25.1413 102.012 25.184L101.74 23.904C101.825 23.872 101.958 23.8293 102.14 23.776C102.321 23.7227 102.524 23.6747 102.748 23.632C102.982 23.5893 103.228 23.552 103.484 23.52C103.74 23.488 103.99 23.472 104.236 23.472ZM108.976 33.552C109.093 33.6053 109.243 33.6533 109.424 33.696C109.616 33.7493 109.803 33.776 109.984 33.776C110.571 33.776 111.029 33.6427 111.36 33.376C111.691 33.12 111.989 32.6987 112.256 32.112C111.584 30.832 110.955 29.4773 110.368 28.048C109.792 26.608 109.312 25.152 108.928 23.68H110.528C110.645 24.16 110.784 24.6773 110.944 25.232C111.115 25.7867 111.301 26.3573 111.504 26.944C111.707 27.5307 111.925 28.1173 112.16 28.704C112.395 29.2907 112.64 29.856 112.896 30.4C113.301 29.28 113.653 28.1707 113.952 27.072C114.251 25.9733 114.533 24.8427 114.8 23.68H116.336C115.952 25.248 115.525 26.7573 115.056 28.208C114.587 29.648 114.08 30.9973 113.536 32.256C113.323 32.736 113.099 33.1467 112.864 33.488C112.64 33.84 112.389 34.128 112.112 34.352C111.835 34.576 111.52 34.7413 111.168 34.848C110.827 34.9547 110.437 35.008 110 35.008C109.883 35.008 109.76 34.9973 109.632 34.976C109.504 34.9653 109.376 34.944 109.248 34.912C109.131 34.8907 109.019 34.864 108.912 34.832C108.816 34.8 108.747 34.7733 108.704 34.752L108.976 33.552ZM119.249 24.64C119.58 24.3733 119.964 24.1707 120.401 24.032C120.849 23.8827 121.276 23.808 121.681 23.808C122.876 23.808 123.777 24.176 124.385 24.912C125.004 25.6373 125.313 26.6507 125.313 27.952C125.313 28.5067 125.238 29.04 125.089 29.552C124.94 30.064 124.705 30.5173 124.385 30.912C124.076 31.3067 123.681 31.6213 123.201 31.856C122.721 32.0907 122.15 32.208 121.489 32.208C120.732 32.208 120.102 32.0693 119.601 31.792C119.1 31.5147 118.7 31.136 118.401 30.656C118.113 30.176 117.91 29.616 117.793 28.976C117.676 28.336 117.617 27.6587 117.617 26.944C117.617 26.016 117.681 25.152 117.809 24.352C117.948 23.552 118.193 22.848 118.545 22.24C118.897 21.632 119.382 21.1307 120.001 20.736C120.63 20.3307 121.436 20.0587 122.417 19.92C122.705 19.8773 122.956 19.8453 123.169 19.824C123.393 19.792 123.585 19.7653 123.745 19.744C123.916 19.7227 124.07 19.7013 124.209 19.68C124.348 19.648 124.492 19.616 124.641 19.584L124.801 20.928C124.726 20.9493 124.646 20.9653 124.561 20.976C124.486 20.9867 124.374 21.0027 124.225 21.024C124.086 21.0453 123.894 21.072 123.649 21.104C123.414 21.136 123.105 21.1733 122.721 21.216C121.665 21.3333 120.854 21.6533 120.289 22.176C119.724 22.6987 119.377 23.52 119.249 24.64ZM119.153 27.184C119.153 27.6853 119.185 28.16 119.249 28.608C119.324 29.056 119.446 29.4507 119.617 29.792C119.798 30.1333 120.038 30.4053 120.337 30.608C120.636 30.8 121.02 30.896 121.489 30.896C121.894 30.896 122.241 30.8213 122.529 30.672C122.817 30.512 123.052 30.2987 123.233 30.032C123.414 29.7653 123.548 29.456 123.633 29.104C123.718 28.7413 123.761 28.3573 123.761 27.952C123.761 27.5893 123.724 27.2373 123.649 26.896C123.585 26.5547 123.462 26.2507 123.281 25.984C123.1 25.7173 122.854 25.504 122.545 25.344C122.246 25.184 121.868 25.104 121.409 25.104C120.961 25.104 120.529 25.2 120.113 25.392C119.708 25.584 119.393 25.8187 119.169 26.096C119.158 26.2133 119.153 26.3787 119.153 26.592C119.153 26.8053 119.153 27.0027 119.153 27.184ZM134.765 27.84C134.765 28.5013 134.669 29.0987 134.477 29.632C134.285 30.1653 134.013 30.624 133.661 31.008C133.319 31.392 132.909 31.6907 132.429 31.904C131.949 32.1067 131.426 32.208 130.861 32.208C130.295 32.208 129.773 32.1067 129.293 31.904C128.813 31.6907 128.397 31.392 128.045 31.008C127.703 30.624 127.437 30.1653 127.245 29.632C127.053 29.0987 126.957 28.5013 126.957 27.84C126.957 27.1893 127.053 26.5973 127.245 26.064C127.437 25.52 127.703 25.056 128.045 24.672C128.397 24.288 128.813 23.9947 129.293 23.792C129.773 23.5787 130.295 23.472 130.861 23.472C131.426 23.472 131.949 23.5787 132.429 23.792C132.909 23.9947 133.319 24.288 133.661 24.672C134.013 25.056 134.285 25.52 134.477 26.064C134.669 26.5973 134.765 27.1893 134.765 27.84ZM133.213 27.84C133.213 26.9013 132.999 26.16 132.573 25.616C132.157 25.0613 131.586 24.784 130.861 24.784C130.135 24.784 129.559 25.0613 129.133 25.616C128.717 26.16 128.509 26.9013 128.509 27.84C128.509 28.7787 128.717 29.5253 129.133 30.08C129.559 30.624 130.135 30.896 130.861 30.896C131.586 30.896 132.157 30.624 132.573 30.08C132.999 29.5253 133.213 28.7787 133.213 27.84ZM138.314 30.88C138.378 30.8907 138.469 30.9013 138.586 30.912C138.703 30.9227 138.837 30.9333 138.986 30.944C139.135 30.944 139.29 30.9493 139.45 30.96C139.621 30.96 139.781 30.96 139.93 30.96C140.239 30.96 140.533 30.9387 140.81 30.896C141.098 30.8533 141.343 30.7787 141.546 30.672C141.759 30.5653 141.925 30.4267 142.042 30.256C142.17 30.0747 142.234 29.8453 142.234 29.568C142.234 29.3013 142.175 29.0827 142.058 28.912C141.951 28.7307 141.802 28.5867 141.61 28.48C141.418 28.3733 141.189 28.2987 140.922 28.256C140.666 28.2133 140.389 28.192 140.09 28.192H138.314V30.88ZM139.898 27.088C140.186 27.088 140.447 27.072 140.682 27.04C140.927 26.9973 141.135 26.928 141.306 26.832C141.487 26.736 141.626 26.608 141.722 26.448C141.829 26.288 141.882 26.0853 141.882 25.84C141.882 25.584 141.818 25.3813 141.69 25.232C141.562 25.0827 141.391 24.9707 141.178 24.896C140.975 24.8107 140.741 24.7573 140.474 24.736C140.218 24.704 139.957 24.688 139.69 24.688C139.445 24.688 139.194 24.6933 138.938 24.704C138.693 24.7147 138.485 24.7253 138.314 24.736V27.088H139.898ZM139.866 32.144C139.237 32.144 138.655 32.112 138.122 32.048C137.589 31.9947 137.167 31.9307 136.858 31.856V23.76C137.167 23.6853 137.589 23.6213 138.122 23.568C138.655 23.504 139.237 23.472 139.866 23.472C140.303 23.472 140.73 23.5093 141.146 23.584C141.562 23.6587 141.93 23.7867 142.25 23.968C142.57 24.1387 142.826 24.3787 143.018 24.688C143.221 24.9867 143.322 25.36 143.322 25.808C143.322 26.2133 143.221 26.56 143.018 26.848C142.815 27.136 142.543 27.36 142.202 27.52C142.661 27.68 143.023 27.92 143.29 28.24C143.567 28.5493 143.706 28.9867 143.706 29.552C143.706 30.0533 143.605 30.4693 143.402 30.8C143.21 31.1307 142.938 31.3973 142.586 31.6C142.245 31.8027 141.839 31.9413 141.37 32.016C140.901 32.1013 140.399 32.144 139.866 32.144Z" fill="#5C5C5C"/>
</svg>
