<svg width="28" height="28" viewBox="0 0 28 28" fill="none" xmlns="http://www.w3.org/2000/svg">
<path d="M25.9149 0H2.08511C1.5321 0 1.00175 0.21968 0.610714 0.610714C0.21968 1.00175 0 1.5321 0 2.08511V25.9149C0 26.4679 0.21968 26.9983 0.610714 27.3893C1.00175 27.7803 1.5321 28 2.08511 28H25.9149C26.4679 28 26.9983 27.7803 27.3893 27.3893C27.7803 26.9983 28 26.4679 28 25.9149V2.08511C28 1.5321 27.7803 1.00175 27.3893 0.610714C26.9983 0.21968 26.4679 0 25.9149 0ZM26.2128 25.9149C26.2128 25.9939 26.1814 26.0697 26.1255 26.1255C26.0697 26.1814 25.9939 26.2128 25.9149 26.2128H2.08511C2.00611 26.2128 1.93034 26.1814 1.87448 26.1255C1.81862 26.0697 1.78723 25.9939 1.78723 25.9149V21.5213L6.64255 16.666C6.66906 16.6371 6.70128 16.614 6.73718 16.5982C6.77307 16.5824 6.81185 16.5743 6.85106 16.5743C6.89027 16.5743 6.92905 16.5824 6.96495 16.5982C7.00084 16.614 7.03307 16.6371 7.05957 16.666L10.1426 19.7489C10.3362 19.9426 10.566 20.0962 10.819 20.201C11.072 20.3058 11.3432 20.3597 11.617 20.3597C11.8909 20.3597 12.162 20.3058 12.415 20.201C12.668 20.0962 12.8979 19.9426 13.0915 19.7489L19.7489 13.0915C19.7754 13.0626 19.8077 13.0395 19.8436 13.0238C19.8795 13.008 19.9182 12.9998 19.9574 12.9998C19.9967 12.9998 20.0354 13.008 20.0713 13.0238C20.1072 13.0395 20.1394 13.0626 20.166 13.0915L26.2128 19.1383V25.9149ZM26.2128 16.6064L21.4319 11.8255C21.2383 11.6319 21.0084 11.4783 20.7554 11.3735C20.5024 11.2687 20.2313 11.2147 19.9574 11.2147C19.6836 11.2147 19.4125 11.2687 19.1595 11.3735C18.9065 11.4783 18.6766 11.6319 18.483 11.8255L11.8255 18.483C11.799 18.5119 11.7668 18.5349 11.7309 18.5507C11.695 18.5665 11.6562 18.5746 11.617 18.5746C11.5778 18.5746 11.539 18.5665 11.5031 18.5507C11.4672 18.5349 11.435 18.5119 11.4085 18.483L8.32553 15.4C7.93259 15.0125 7.40291 14.7953 6.85106 14.7953C6.29921 14.7953 5.76954 15.0125 5.3766 15.4L1.78723 18.9894V2.08511C1.78723 2.00611 1.81862 1.93034 1.87448 1.87448C1.93034 1.81862 2.00611 1.78723 2.08511 1.78723H25.9149C25.9939 1.78723 26.0697 1.81862 26.1255 1.87448C26.1814 1.93034 26.2128 2.00611 26.2128 2.08511V16.6064ZM11.3191 8.6383C11.3191 9.0333 11.1622 9.41213 10.8829 9.69144C10.6036 9.97074 10.2248 10.1277 9.82979 10.1277C9.63365 10.1297 9.43908 10.0925 9.25749 10.0183C9.07589 9.9442 8.91091 9.83457 8.77221 9.69587C8.63351 9.55718 8.52388 9.3922 8.44974 9.2106C8.3756 9.029 8.33843 8.83444 8.34043 8.6383C8.34043 8.24329 8.49734 7.86447 8.77665 7.58516C9.05596 7.30585 9.43478 7.14894 9.82979 7.14894C10.2248 7.14894 10.6036 7.30585 10.8829 7.58516C11.1622 7.86447 11.3191 8.24329 11.3191 8.6383Z" fill="#5C5C5C"/>
</svg>
