<svg width="28" height="22" viewBox="0 0 28 22" fill="none" xmlns="http://www.w3.org/2000/svg">
<path d="M21.9995 5.92534C21.9758 4.34659 21.3402 2.86189 20.2098 1.74474C19.0795 0.627769 17.5874 0.00953516 16.0054 0.00390625C14.1855 0.00390625 12.7995 0.954375 11.5902 1.95464C11.5889 1.95464 11.5875 1.95464 11.5861 1.95464C11.0276 1.95464 10.437 1.61798 9.75581 1.22972C8.79773 0.683543 7.60548 0.00390625 5.99466 0.00390625C2.73845 0.00390625 0.0495082 2.66028 0.000523855 5.92539C-0.0205738 7.32875 0.597532 10.4252 1.50357 13.4552C2.14909 15.6141 3.47287 19.4802 5.08549 21.1172C5.66024 21.7007 6.26159 21.9966 6.8726 21.9966C7.32339 21.9966 7.73129 21.8092 8.05222 21.4548C8.27063 21.2135 8.45054 20.8927 8.60214 20.474C8.83842 19.8215 8.98611 18.9918 9.14247 18.1133C9.54367 15.8592 9.9355 14.134 11.0021 14.1276C12.0688 14.134 12.4606 15.8592 12.8618 18.1133C13.0182 18.9917 13.1658 19.8215 13.4021 20.474C13.5537 20.8927 13.7336 21.2135 13.952 21.4548C14.2693 21.8051 14.6714 21.9922 15.1161 21.9965C15.1207 21.9965 15.1252 21.9965 15.1298 21.9965C15.1304 21.9965 15.131 21.9965 15.1317 21.9965C15.1346 21.9965 15.1376 21.9965 15.1404 21.9964C15.747 21.9923 16.3439 21.6965 16.9147 21.1171C18.5272 19.4802 19.8509 15.614 20.4964 13.4552C21.4025 10.4251 22.0206 7.3287 21.9995 5.92534ZM18.8503 12.9629C17.8295 16.3764 16.6779 18.909 15.6906 19.9112C15.4771 20.128 15.3069 20.2329 15.1975 20.2662C15.1436 20.1906 15.0387 20.0029 14.9182 19.5758C14.7804 19.0877 14.6701 18.468 14.5533 17.812C14.3559 16.7028 14.132 15.4455 13.6963 14.4513C12.9643 12.7817 11.8439 12.4171 11.0227 12.4095C11.0179 12.4094 11.013 12.4093 11.008 12.4093H10.9961C10.9912 12.4093 10.9863 12.4094 10.9814 12.4095C10.1603 12.4171 9.03986 12.7817 8.30793 14.4513C7.8721 15.4455 7.64832 16.7027 7.45088 17.812C7.33413 18.4681 7.22383 19.0877 7.08607 19.5758C6.96499 20.0049 6.85967 20.1923 6.806 20.2672C6.69677 20.2352 6.5252 20.1303 6.3095 19.9113C5.32216 18.9091 4.17051 16.3765 3.14979 12.9629C2.19949 9.78493 1.70312 6.97838 1.71854 5.95117C1.75356 3.61921 3.67186 1.72205 5.99475 1.72205C7.15022 1.72205 8.0423 2.23059 8.90494 2.72224C9.25853 2.9238 9.61719 3.12829 9.99183 3.29566C9.14522 3.9612 8.32572 4.44142 7.36833 4.44142V6.15961C9.31666 6.15961 10.7176 4.95885 12.0724 3.79766C13.3178 2.73023 14.4941 1.72197 16.0023 1.72197C18.327 1.73026 20.2467 3.62742 20.2816 5.95108C20.2969 6.97829 19.8005 9.78484 18.8503 12.9629Z" fill="#5C5C5C"/>
<path d="M24.8843 10.1541C24.8843 12.6818 22.8352 14.731 20.3074 14.731C17.7796 14.731 15.7305 12.6818 15.7305 10.1541C15.7305 7.62631 17.7796 5.57715 20.3074 5.57715C22.8352 5.57715 24.8843 7.62631 24.8843 10.1541Z" fill="white" stroke="white"/>
<path d="M19.4623 10.9998V13.5383H21.1546V10.9998H23.6931V9.3075H21.1546V6.76904H19.4623V9.3075H16.9238V10.9998H19.4623Z" fill="#5C5C5C"/>
</svg>
