<svg width="24" height="24" viewBox="0 0 24 24" fill="none" xmlns="http://www.w3.org/2000/svg">
<path d="M12.0534 8.304C11.68 8.304 11.3227 8.352 10.9814 8.448C10.64 8.53333 10.2827 8.67733 9.90938 8.88L9.36538 7.392C9.76004 7.168 10.208 6.992 10.7094 6.864C11.2214 6.72533 11.744 6.656 12.2774 6.656C12.9174 6.656 13.4454 6.74667 13.8614 6.928C14.2774 7.09867 14.608 7.31733 14.8534 7.584C15.0987 7.85067 15.2694 8.144 15.3654 8.464C15.4614 8.784 15.5094 9.09333 15.5094 9.392C15.5094 9.75467 15.44 10.08 15.3014 10.368C15.1734 10.656 15.008 10.9227 14.8054 11.168C14.6027 11.4133 14.384 11.648 14.1494 11.872C13.9147 12.0853 13.696 12.3093 13.4934 12.544C13.2907 12.768 13.12 13.008 12.9814 13.264C12.8534 13.52 12.7894 13.808 12.7894 14.128C12.7894 14.1813 12.7894 14.2453 12.7894 14.32C12.7894 14.384 12.7947 14.448 12.8054 14.512H11.1414C11.12 14.4053 11.104 14.2933 11.0934 14.176C11.0827 14.048 11.0774 13.9307 11.0774 13.824C11.0774 13.472 11.136 13.1573 11.2534 12.88C11.3707 12.6027 11.52 12.3467 11.7014 12.112C11.8827 11.8773 12.0747 11.6587 12.2774 11.456C12.4907 11.2533 12.688 11.0507 12.8694 10.848C13.0507 10.6453 13.2 10.4373 13.3174 10.224C13.4347 10.0107 13.4934 9.776 13.4934 9.52C13.4934 9.168 13.3707 8.88 13.1254 8.656C12.8907 8.42133 12.5334 8.304 12.0534 8.304ZM13.3014 16.944C13.3014 17.3173 13.1787 17.6213 12.9334 17.856C12.688 18.0907 12.384 18.208 12.0214 18.208C11.6694 18.208 11.3654 18.0907 11.1094 17.856C10.864 17.6213 10.7414 17.3173 10.7414 16.944C10.7414 16.5707 10.864 16.2667 11.1094 16.032C11.3654 15.7867 11.6694 15.664 12.0214 15.664C12.384 15.664 12.688 15.7867 12.9334 16.032C13.1787 16.2667 13.3014 16.5707 13.3014 16.944Z" fill="#5C5C5C"/>
<circle cx="12" cy="12" r="11" stroke="#5C5C5C" stroke-width="2"/>
</svg>
