<svg width="22" height="22" viewBox="0 0 22 22" fill="none" xmlns="http://www.w3.org/2000/svg">
<g clip-path="url(#clip0_1988_9808)">
<path fill-rule="evenodd" clip-rule="evenodd" d="M2.58946 20.3471H15.683C17.2758 20.3471 18.5713 19.0657 18.5713 17.4903V13.5542H16.6458V17.4903C16.6458 18.0154 16.2139 18.4425 15.683 18.4425H2.58946C2.05858 18.4425 1.6267 18.0154 1.6267 17.4903V4.53942C1.6267 4.01433 2.05858 3.58715 2.58946 3.58715H15.683C16.2139 3.58715 16.6458 4.01433 16.6458 4.53942V8.47546H18.5713V4.53942C18.5713 2.96401 17.2758 1.68262 15.683 1.68262H2.58946C0.996688 1.68262 -0.298828 2.96401 -0.298828 4.53942V17.4903C-0.298828 19.0657 0.996688 20.3471 2.58946 20.3471Z" fill="#5C5C5C"/>
<path d="M17.1426 9.93254C17.1426 9.46837 17.6384 9.16663 18.0595 9.37453L20.2215 10.4419C20.6877 10.6721 20.6877 11.3278 20.2215 11.5579L18.0595 12.6253C17.6384 12.8332 17.1426 12.5315 17.1426 12.0673V9.93254Z" fill="#5C5C5C"/>
</g>
<defs>
<clipPath id="clip0_1988_9808">
<rect width="22" height="22" fill="white"/>
</clipPath>
</defs>
</svg>
