<svg width="22" height="24" viewBox="0 0 22 24" fill="none" xmlns="http://www.w3.org/2000/svg">
<path d="M17.5426 5.23291L16.1399 21.2162H5.85699L4.45466 5.23291L2.67773 5.38867L4.10567 21.6618C4.18082 22.4119 4.83163 23 5.58766 23H16.4093C17.165 23 17.8161 22.4122 17.8925 21.6511L19.3195 5.38867L17.5426 5.23291Z" fill="#5C5C5C"/>
<path d="M14.2692 1H7.72869C6.90902 1 6.24219 1.66683 6.24219 2.4865V5.31084H8.02595V2.78376H13.9719V5.3108H15.7556V2.48646C15.7557 1.66683 15.0889 1 14.2692 1Z" fill="#5C5C5C"/>
<path d="M20.5126 4.41895H1.48565C0.993016 4.41895 0.59375 4.81821 0.59375 5.31085C0.59375 5.80348 0.993016 6.20275 1.48565 6.20275H20.5127C21.0053 6.20275 21.4046 5.80348 21.4046 5.31085C21.4046 4.81821 21.0053 4.41895 20.5126 4.41895Z" fill="#5C5C5C"/>
</svg>
