<svg width="105" height="105" viewBox="0 0 105 105" fill="none" xmlns="http://www.w3.org/2000/svg">
<path d="M101.267 53.3297C103.402 53.3297 105.147 55.0332 104.99 57.1258C104.268 66.77 100.803 76.0496 94.9537 83.8884C88.3408 92.7513 79.025 99.3104 68.3601 102.613C57.6951 105.915 46.2368 105.789 35.65 102.252C25.0632 98.7147 15.8997 91.9515 9.4909 82.9448C3.08215 73.9382 -0.237879 63.1575 0.0132677 52.1692C0.264415 41.1809 4.07365 30.5575 10.8874 21.8429C17.7012 13.1283 27.1645 6.77645 37.9022 3.71037C47.3992 0.99857 57.4555 0.982061 66.9195 3.6227C68.973 4.19567 70.0023 6.39141 69.2701 8.36243L67.1693 14.0179C66.4371 15.9889 64.2209 16.9834 62.1527 16.4637C55.4729 14.7853 48.4331 14.8857 41.7673 16.789C33.8599 19.0469 26.8909 23.7246 21.8731 30.1422C16.8553 36.5598 14.0501 44.383 13.8651 52.4751C13.6802 60.5671 16.1251 68.5062 20.8446 75.1389C25.5642 81.7716 32.3124 86.7521 40.1087 89.3569C47.905 91.9616 56.3432 92.0547 64.1971 89.6228C72.051 87.1909 78.9113 82.3606 83.7812 75.8338C87.8864 70.3319 90.3969 63.8662 91.0841 57.1228C91.2969 55.0349 93.0074 53.3297 95.142 53.3297H101.267Z" fill="#8C77DE"/>
<path d="M32.9239 42.4724C32.1362 41.6981 30.859 41.6981 30.0713 42.4724L23.3736 49.056C22.5858 49.8303 22.5858 51.0857 23.3736 51.86L49.1719 77.2189C49.9597 77.9932 51.2368 77.9932 52.0246 77.2189L100.505 29.5644C101.293 28.7901 101.293 27.5347 100.505 26.7604L93.8072 20.1768C93.0195 19.4025 91.7424 19.4025 90.9546 20.1768L52.0246 58.4436C51.2368 59.2179 49.9597 59.2179 49.1719 58.4436L32.9239 42.4724Z" fill="#8C77DE"/>
</svg>
