<svg width="22" height="22" viewBox="0 0 22 22" fill="none" xmlns="http://www.w3.org/2000/svg">
<path d="M18.7025 20.4286H7.44792C6.07884 20.4286 4.96528 19.3548 4.96528 18.0346V7.18192C4.96528 5.86174 6.07884 4.78795 7.44792 4.78795H18.7025C20.0716 4.78795 21.1852 5.86174 21.1852 7.18192V18.0346C21.1852 19.3548 20.0716 20.4286 18.7025 20.4286ZM7.44792 6.38393C6.9916 6.38393 6.62037 6.7419 6.62037 7.18192V18.0346C6.62037 18.4746 6.9916 18.8326 7.44792 18.8326H18.7025C19.1589 18.8326 19.5301 18.4746 19.5301 18.0346V7.18192C19.5301 6.7419 19.1589 6.38393 18.7025 6.38393H7.44792ZM3.31019 14.0446H2.48264C2.02632 14.0446 1.65509 13.6867 1.65509 13.2467V2.39397C1.65509 1.95396 2.02632 1.59598 2.48264 1.59598H13.7373C14.1936 1.59598 14.5648 1.95396 14.5648 2.39397V3.15206H16.2199V2.39397C16.2199 1.0738 15.1063 0 13.7373 0H2.48264C1.11357 0 0 1.0738 0 2.39397V13.2467C0 14.5668 1.11357 15.6406 2.48264 15.6406H3.31019V14.0446Z" fill="#5C5C5C"/>
</svg>
